<svg id="checked" xmlns="http://www.w3.org/2000/svg" width="44.5" height="44.5" viewBox="0 0 44.5 44.5">
  <g id="Group_6341" data-name="Group 6341" transform="translate(10.566 5.591)">
    <g id="Group_6340" data-name="Group 6340">
      <path id="Path_3100" data-name="Path 3100" d="M154.229,64.82a1.677,1.677,0,0,0-2.371,0l-20.12,20.067L124.479,77a1.677,1.677,0,1,0-2.468,2.272l8.442,9.168a1.675,1.675,0,0,0,1.2.541h.036a1.679,1.679,0,0,0,1.184-.489l21.356-21.3A1.677,1.677,0,0,0,154.229,64.82Z" transform="translate(-121.568 -64.327)" fill="#fff"/>
    </g>
  </g>
  <g id="Group_6343" data-name="Group 6343">
    <g id="Group_6342" data-name="Group 6342">
      <path id="Path_3101" data-name="Path 3101" d="M42.823,20.573a1.677,1.677,0,0,0-1.677,1.677,18.9,18.9,0,1,1-18.9-18.9A1.677,1.677,0,1,0,22.25,0,22.25,22.25,0,1,0,44.5,22.25,1.677,1.677,0,0,0,42.823,20.573Z" fill="#fff"/>
    </g>
  </g>
</svg>
