<svg xmlns="http://www.w3.org/2000/svg" width="52.799" height="45.059" viewBox="0 0 52.799 45.059">
  <path id="Path_3099" data-name="Path 3099" d="M51.8,25.484a14.661,14.661,0,0,1-.73,4.576c-2.4,10.793-23.149,23.935-24.03,24.486a1.141,1.141,0,0,1-1.206,0c-.421-.263-10.372-6.551-17.429-14a1.131,1.131,0,1,1,1.646-1.552c5.891,6.222,14.112,11.764,16.387,13.253C29.87,50,46.88,38.474,48.889,29.463a12.824,12.824,0,0,0,.646-3.977,12.559,12.559,0,0,0-22.229-8.019,1.137,1.137,0,0,1-.871.41h0a1.122,1.122,0,0,1-.871-.41A12.562,12.562,0,0,0,3.325,25.484a12.4,12.4,0,0,0,.621,3.869,13.546,13.546,0,0,0,1.5,3.641H13.03l2.426-4.061a1.126,1.126,0,0,1,.951-.549,1.09,1.09,0,0,1,.971.516l3.969,6.112,4.422-11.951a1.131,1.131,0,0,1,1.06-.741h0a1.13,1.13,0,0,1,1.06.739l3.7,9.935h6.556a1.132,1.132,0,0,1,0,2.264H30.8a1.137,1.137,0,0,1-1.064-.734l-2.906-7.816L22.69,37.92a1.125,1.125,0,0,1-.938.73,1.106,1.106,0,0,1-1.076-.509l-4.209-6.482L14.645,34.71a1.134,1.134,0,0,1-.971.553H1.132a1.132,1.132,0,1,1,0-2.264H2.875a13.954,13.954,0,0,1-1.11-3.046,14.349,14.349,0,0,1-.7-4.468A14.828,14.828,0,0,1,26.432,15.06,14.823,14.823,0,0,1,51.8,25.484Z" transform="translate(0.5 -10.159)" fill="#fff" stroke="#fff" stroke-width="1"/>
</svg>
