<svg xmlns="http://www.w3.org/2000/svg" width="39.656" height="43.777" viewBox="0 0 39.656 43.777">
  <g id="megaphone" transform="translate(-24.1)">
    <path id="Path_3095" data-name="Path 3095" d="M379.755,53.138,382.5,50.39a1.283,1.283,0,1,0-1.814-1.814l-2.747,2.747a1.283,1.283,0,1,0,1.814,1.814Z" transform="translate(-323.243 -44.08)" fill="#fff"/>
    <path id="Path_3096" data-name="Path 3096" d="M41.4,48.576a1.283,1.283,0,0,0-2.067.361L28.439,72.088l-3.963,3.963a1.283,1.283,0,0,0,0,1.814l5.495,5.495a1.283,1.283,0,0,0,1.814,0L35,80.146l7.336,7.336a1.282,1.282,0,0,0,1.814,0l4.808-4.808a1.283,1.283,0,0,0,0-1.814l-5.221-5.221L58.9,68.5a1.283,1.283,0,0,0,.361-2.067ZM30.878,80.639,27.2,76.958,29.5,74.651l3.681,3.681Zm15.358,1.127L43.241,84.76,37.2,78.715,41.268,76.8ZM35.269,76.788l-4.22-4.22L40.877,51.68,56.155,66.958Z" transform="translate(0 -44.079)" fill="#fff"/>
    <path id="Path_3097" data-name="Path 3097" d="M429.8,176.733h-2.748a1.283,1.283,0,0,0,0,2.565H429.8a1.283,1.283,0,1,0,0-2.565Z" transform="translate(-367.322 -161.622)" fill="#fff"/>
    <path id="Path_3098" data-name="Path 3098" d="M282.449,5.313a1.283,1.283,0,0,0,1.283-1.283V1.283a1.283,1.283,0,1,0-2.565,0V4.03A1.283,1.283,0,0,0,282.449,5.313Z" transform="translate(-235.086)" fill="#fff"/>
  </g>
</svg>
