<svg xmlns="http://www.w3.org/2000/svg" width="18" height="9.715" viewBox="0 0 18 9.715">
  <path id="Path_2561" data-name="Path 2561" d="M.619,18a.611.611,0,0,1-.434-.176A.561.561,0,0,1,0,17.4a.574.574,0,0,1,.177-.422L8.264,8.938.3,1.038A.724.724,0,0,1,.15.757a.547.547,0,0,1,0-.308A.732.732,0,0,1,.3.176.591.591,0,0,1,.734,0a.591.591,0,0,1,.434.176l8.37,8.34a.575.575,0,0,1,.133.2.63.63,0,0,1,.044.229.564.564,0,0,1-.044.22.6.6,0,0,1-.133.194L1.044,17.824a.579.579,0,0,1-.2.132A.618.618,0,0,1,.619,18Z" transform="translate(18) rotate(90)" fill="#068d6e"/>
</svg>
