<svg xmlns="http://www.w3.org/2000/svg" width="22.303" height="21.881" viewBox="0 0 22.303 21.881">
  <path id="Path_3132" data-name="Path 3132" d="M21.858,11.364a.488.488,0,0,0-.407-.136H15.615V8.65a4.615,4.615,0,0,0-9.23,0v2.579H.549c-.163,0-.326,0-.407.136a.462.462,0,0,0-.136.407L2.042,22.9a3.312,3.312,0,0,0,3.2,2.715h11.51a3.339,3.339,0,0,0,3.2-2.742l2.036-11.1A.462.462,0,0,0,21.858,11.364ZM7.471,8.65a3.529,3.529,0,1,1,7.058,0v2.579H7.471Zm11.4,14.089a2.172,2.172,0,0,1-2.117,1.792H5.245a2.172,2.172,0,0,1-2.117-1.792L1.2,12.315H20.8Z" transform="translate(0.152 -3.885)" fill="#04231c" stroke="#04231c" stroke-width="0.3"/>
</svg>
