<svg xmlns="http://www.w3.org/2000/svg" width="22" height="22" viewBox="0 0 22 22">
  <g id="translate" transform="translate(-0.002)">
    <path id="Path_3135" data-name="Path 3135" d="M20.068,5.2H10.617L9.036.441A.645.645,0,0,0,8.424,0H1.936A1.936,1.936,0,0,0,0,1.934V14.867A1.936,1.936,0,0,0,1.936,16.8h7.1l1.569,4.745a.647.647,0,0,0,.616.454h8.846A1.936,1.936,0,0,0,22,20.066V7.133A1.936,1.936,0,0,0,20.068,5.2ZM1.936,15.512a.645.645,0,0,1-.645-.645V1.934a.645.645,0,0,1,.645-.645H7.959l4.728,14.223ZM12.58,16.8l-1.263,2.786L10.4,16.8Zm8.133,3.266a.645.645,0,0,1-.645.645H12.223l1.944-4.289a.649.649,0,0,0,.025-.47L11.046,6.488h9.023a.645.645,0,0,1,.645.645Z" fill="#04231c"/>
    <path id="Path_3136" data-name="Path 3136" d="M67.33,123.812H65.221a.7.7,0,1,0,0,1.406h1.285a2.109,2.109,0,1,1-.5-2.195A.7.7,0,0,0,67,122.03a3.516,3.516,0,1,0,1.03,2.486A.7.7,0,0,0,67.33,123.812Z" transform="translate(-58.141 -115.997)" fill="#04231c"/>
    <path id="Path_3137" data-name="Path 3137" d="M307.33,212.406h-2.109v-.7a.7.7,0,0,0-1.406,0v.7h-2.109a.7.7,0,0,0,0,1.406h4.085a8.836,8.836,0,0,1-1.263,2.211c-.12-.162-.239-.329-.354-.5a.7.7,0,1,0-1.163.791c.2.29.4.572.61.84-.351.408-.7.777-1,1.075a.7.7,0,1,0,.985,1c.024-.024.408-.4.92-.981.5.572.874.948.9.977a.7.7,0,0,0,.994-.994c-.007-.007-.438-.44-.987-1.081a9.147,9.147,0,0,0,1.812-3.344h.084a.7.7,0,0,0,0-1.406Z" transform="translate(-288.891 -202.38)" fill="#04231c"/>
  </g>
</svg>
