<svg xmlns="http://www.w3.org/2000/svg" width="26.732" height="24.288" viewBox="0 0 26.732 24.288">
  <path id="Path_3127" data-name="Path 3127" d="M26.431,32.511a7.8,7.8,0,0,0-13.214-5.392A7.8,7.8,0,0,0,0,32.511a8.4,8.4,0,0,0,2.7,6.13l9.97,9.916a.775.775,0,0,0,1.093,0l9.97-9.916A8.4,8.4,0,0,0,26.431,32.511Zm-13.214,14.4-8.507-8.46H7.431a.775.775,0,0,0,.664-.376l.595-.991,2.219,3.487a.775.775,0,0,0,1.354-.084l3.063-6.465,2.166,4.022a.775.775,0,0,0,.682.407h3.548Zm10.005-10.01H18.637l-2.673-4.963a.775.775,0,0,0-1.382.036L11.464,38.56,9.324,35.2a.775.775,0,0,0-1.318.017L6.993,36.906H3.211a6.591,6.591,0,0,1-1.66-4.364c.1-4.83,6.253-8.678,11.117-3.815a.775.775,0,0,0,1.1,0c6.211-6.209,14.749,1.818,9.457,8.179Z" transform="translate(0.15 -24.7)" fill="#068d6e" stroke="#068d6e" stroke-width="0.3"/>
</svg>
