<svg xmlns="http://www.w3.org/2000/svg" width="20.156" height="23.889" viewBox="0 0 20.156 23.889">
  <g id="shield" transform="translate(-40 0)">
    <path id="Path_3123" data-name="Path 3123" d="M59.581,3.868,50.436.071a.933.933,0,0,0-.716,0l-9.145,3.8A.933.933,0,0,0,40,4.73V9.346A15.627,15.627,0,0,0,49.726,23.82a.933.933,0,0,0,.705,0A15.627,15.627,0,0,0,60.156,9.346V4.73A.933.933,0,0,0,59.581,3.868ZM58.29,9.346a13.764,13.764,0,0,1-8.212,12.6,13.765,13.765,0,0,1-8.212-12.6V5.353l8.212-3.41,8.212,3.41Zm-9.243,3.145L53.058,8.48a.933.933,0,1,1,1.32,1.32l-4.671,4.671a.933.933,0,0,1-1.32,0l-2.608-2.608a.933.933,0,0,1,1.32-1.32Z" transform="translate(0 0)" fill="#068d6e"/>
  </g>
</svg>
