<svg xmlns="http://www.w3.org/2000/svg" width="26.928" height="24.5" viewBox="0 0 26.928 24.5">
  <g id="leaf_1_" data-name="leaf (1)" transform="translate(0.25 -21.329)">
    <g id="Group_5963" data-name="Group 5963" transform="translate(0 21.579)">
      <g id="Group_5962" data-name="Group 5962" transform="translate(0 0)">
        <path id="Path_3120" data-name="Path 3120" d="M10.625,24.154C8.316,21.847,3.8,21.579.6,21.579a.6.6,0,0,0-.6.6c0,3.2.266,7.716,2.575,10.025a5.588,5.588,0,0,0,3.949,1.41,5.985,5.985,0,0,0,4.1-1.411C12.344,30.483,12.66,26.188,10.625,24.154Zm-.848,7.2c-1.284,1.283-4.849,1.5-6.352,0-1.864-1.864-2.186-5.65-2.221-8.573,2.923.035,6.709.358,8.573,2.221C11.279,26.506,11.059,30.073,9.776,31.355Z" transform="translate(0 -21.579)" fill="#068d6e" stroke="#068d6e" stroke-width="0.5"/>
      </g>
    </g>
    <g id="Group_5965" data-name="Group 5965" transform="translate(14.392 23.953)">
      <g id="Group_5964" data-name="Group 5964" transform="translate(0 0)">
        <path id="Path_3121" data-name="Path 3121" d="M267.3,63.776c-3.2,0-7.716.266-10.025,2.575-2.035,2.034-1.72,6.329,0,8.048a5.987,5.987,0,0,0,4.1,1.41,5.594,5.594,0,0,0,3.95-1.409c2.308-2.309,2.575-6.827,2.575-10.025A.6.6,0,0,0,267.3,63.776Zm-2.826,9.775c-1.5,1.5-5.069,1.283-6.352,0s-1.5-4.849,0-6.352c1.864-1.864,5.65-2.186,8.573-2.221C266.658,67.9,266.335,71.689,264.471,73.551Z" transform="translate(-255.862 -63.776)" fill="#068d6e" stroke="#068d6e" stroke-width="0.5"/>
      </g>
    </g>
    <g id="Group_5967" data-name="Group 5967" transform="translate(4.8 26.38)">
      <g id="Group_5966" data-name="Group 5966" transform="translate(0 0)">
        <path id="Path_3122" data-name="Path 3122" d="M102.023,109.694a.648.648,0,0,0-.846-.265,14.381,14.381,0,0,0-7.89,9.815c-1.271-8.246-4.946-10.76-6.505-11.827a3.769,3.769,0,0,1-.43-.313.6.6,0,0,0-.848.848,4.828,4.828,0,0,0,.6.455c1.757,1.2,6.424,4.394,6.424,17.12a.6.6,0,0,0,1.2,0c0-5.142,1.381-11.921,7.96-15.012,0,0,.1-.047.1-.047A.556.556,0,0,0,102.023,109.694Z" transform="translate(-85.328 -106.928)" fill="#068d6e" stroke="#068d6e" stroke-width="0.5"/>
      </g>
    </g>
  </g>
</svg>
