<svg xmlns="http://www.w3.org/2000/svg" width="17.646" height="13.648" viewBox="0 0 17.646 13.648">
  <g id="eye" transform="translate(0 -58)">
    <g id="Group_6437" data-name="Group 6437" transform="translate(0 58)">
      <g id="Group_6436" data-name="Group 6436" transform="translate(0)">
        <path id="Path_3865" data-name="Path 3865" d="M169.1,274a3.1,3.1,0,1,0,3.1,3.1A3.105,3.105,0,0,0,169.1,274Zm0,4.825a1.723,1.723,0,1,1,1.723-1.723A1.725,1.725,0,0,1,169.1,278.825Z" transform="translate(-160.282 -266.555)" fill="#798080"/>
        <path id="Path_3866" data-name="Path 3866" d="M17.573,66.914a9.108,9.108,0,0,0-3.485-3.691l1.866-1.866a.689.689,0,1,0-.975-.975L12.79,62.571a10.318,10.318,0,0,0-3.277-.758V58.689a.689.689,0,1,0-1.379,0v3.124a10.318,10.318,0,0,0-3.277.758L2.668,60.382a.689.689,0,1,0-.975.975l1.866,1.866A9.108,9.108,0,0,0,.075,66.914a.689.689,0,0,0,1.231.621A8.345,8.345,0,0,1,8.824,63.17a8.345,8.345,0,0,1,7.518,4.365.689.689,0,1,0,1.231-.621Z" transform="translate(0 -58)" fill="#798080"/>
      </g>
    </g>
  </g>
</svg>
