<svg xmlns="http://www.w3.org/2000/svg" width="9.715" height="18" viewBox="0 0 9.715 18">
  <path id="Path_2561" data-name="Path 2561" d="M13.619,18a.611.611,0,0,1-.434-.176A.561.561,0,0,1,13,17.4a.574.574,0,0,1,.177-.422l8.087-8.041L13.3,1.038a.724.724,0,0,1-.15-.282.547.547,0,0,1,0-.308A.732.732,0,0,1,13.3.176a.622.622,0,0,1,.867,0l8.37,8.34a.575.575,0,0,1,.133.2.63.63,0,0,1,.044.229.564.564,0,0,1-.044.22.6.6,0,0,1-.133.194l-8.494,8.463a.579.579,0,0,1-.2.132A.618.618,0,0,1,13.619,18Z" transform="translate(22.715 18) rotate(180)" fill="#798080"/>
</svg>
