<svg xmlns="http://www.w3.org/2000/svg" width="13.447" height="9.401" viewBox="0 0 13.447 9.401">
  <path id="Path_2556" data-name="Path 2556" d="M12.934,96.91a.234.234,0,0,0,0-.152l-.025-.076A.865.865,0,0,0,11.936,96H1.416a1.94,1.94,0,0,0-.727.139,1.171,1.171,0,0,0-.525.379L.1,96.582a.359.359,0,0,0-.089.329A.112.112,0,0,0,0,96.961v6.524a1.354,1.354,0,0,0,.455.961,1.354,1.354,0,0,0,.961.455H11.936a.837.837,0,0,0,.74-.43,1.806,1.806,0,0,0,.272-.986V96.942Zm-11.518-.1H11.936l-5.462,4.362L1.024,96.822A3.868,3.868,0,0,1,1.416,96.809Zm10.519,7.283H1.416a.472.472,0,0,1-.259-.1.979.979,0,0,1-.247-.247.472.472,0,0,1-.1-.259V97.694l5.4,4.311a.387.387,0,0,0,.266.1.489.489,0,0,0,.266-.1l5.4-4.311v5.841Q12.138,104.092,11.936,104.092Z" transform="translate(0.25 -95.75)" fill="#cdd3d2" stroke="#cdd3d2" stroke-width="0.5"/>
</svg>
