<svg xmlns="http://www.w3.org/2000/svg" width="28.996" height="7.728" viewBox="0 0 28.996 7.728">
  <g id="paypal-seeklogo.com" transform="translate(0 0)">
    <path id="Path_2515" data-name="Path 2515" d="M313.65,385.13a1.538,1.538,0,0,1,1.7,1.793c-.145,1.521-.959,2.362-2.245,2.366h-1.123c-.161,0-.24.132-.282.4l-.217,1.381c-.033.209-.14.311-.3.311h-1.045c-.167,0-.224-.106-.188-.345l.862-5.534c.043-.272.145-.374.331-.374h2.5Zm-1.7,2.963h.851c.532-.02.886-.389.921-1.054a.643.643,0,0,0-.7-.7l-.8,0-.274,1.752Zm6.243,2.866c.1-.087.193-.132.179-.025l-.034.256c-.017.134.035.2.16.2h.928c.156,0,.232-.063.271-.3l.572-3.59c.029-.18-.015-.269-.152-.269h-1.021c-.092,0-.137.051-.161.192l-.038.221c-.02.115-.072.135-.122.02-.173-.41-.615-.594-1.231-.579a2.555,2.555,0,0,0-2.5,2.51,1.725,1.725,0,0,0,1.71,1.924,1.836,1.836,0,0,0,1.441-.558h0Zm-.778-.552a.933.933,0,0,1-.957-1.094,1.333,1.333,0,0,1,1.282-1.094.933.933,0,0,1,.957,1.094,1.332,1.332,0,0,1-1.282,1.094Zm4.67-3.186h-.941c-.194,0-.273.145-.211.323l1.169,3.422-1.146,1.629c-.1.136-.022.26.114.26h1.058a.324.324,0,0,0,.314-.154l3.594-5.156c.111-.159.059-.325-.123-.325h-1c-.172,0-.24.068-.339.211l-1.5,2.172-.67-2.177a.287.287,0,0,0-.317-.2Z" transform="translate(-309.942 -385.129)" fill="#113984" fill-rule="evenodd"/>
    <path id="Path_2516" data-name="Path 2516" d="M536.319,385.111a1.538,1.538,0,0,1,1.7,1.793c-.145,1.521-.959,2.362-2.245,2.366h-1.122c-.162,0-.24.132-.282.4l-.217,1.381c-.033.209-.14.311-.3.311h-1.045c-.166,0-.224-.107-.187-.345l.864-5.536c.043-.272.145-.374.331-.374h2.5Zm-1.7,2.963h.851c.532-.02.885-.389.921-1.054a.643.643,0,0,0-.7-.7l-.8,0-.274,1.752Zm6.242,2.866c.1-.087.193-.132.179-.025l-.034.256c-.017.134.035.2.16.2h.928c.156,0,.232-.063.271-.3l.572-3.59c.029-.18-.015-.269-.152-.269h-1.02c-.092,0-.137.051-.161.192l-.038.221c-.02.115-.072.135-.122.02-.173-.41-.615-.594-1.231-.579a2.555,2.555,0,0,0-2.5,2.51,1.725,1.725,0,0,0,1.71,1.924,1.836,1.836,0,0,0,1.441-.558h0Zm-.777-.553a.933.933,0,0,1-.956-1.094,1.333,1.333,0,0,1,1.281-1.094.933.933,0,0,1,.957,1.094,1.333,1.333,0,0,1-1.282,1.094Zm4.282.995h-1.072a.127.127,0,0,1-.131-.145l.941-5.964a.185.185,0,0,1,.178-.145h1.072a.127.127,0,0,1,.131.145l-.941,5.964a.185.185,0,0,1-.178.146Z" transform="translate(-516.489 -385.11)" fill="#009ee3" fill-rule="evenodd"/>
  </g>
</svg>
