<svg xmlns="http://www.w3.org/2000/svg" width="16.641" height="16.65" viewBox="0 0 16.641 16.65">
  <path id="Path_3142" data-name="Path 3142" d="M11.205,3.138c-3.306,0-6.446-.294-7.645,2.784-.5,1.271-.423,2.922-.423,5.286,0,2.074-.066,4.024.423,5.285,1.2,3.08,4.362,2.785,7.644,2.785,3.166,0,6.431.33,7.645-2.785.5-1.284.423-2.91.423-5.285,0-3.153.174-5.188-1.355-6.716C16.369,2.944,14.275,3.138,11.2,3.138Zm-.723,1.454c6.9-.011,7.775-.778,7.29,9.874-.172,3.767-3.041,3.354-6.566,3.354-6.429,0-6.614-.184-6.614-6.616,0-6.506.51-6.608,5.89-6.614Zm5.03,1.339a.968.968,0,1,0,.968.968A.968.968,0,0,0,15.513,5.932ZM11.205,7.064a4.144,4.144,0,1,0,4.142,4.144,4.144,4.144,0,0,0-4.142-4.144Zm0,1.454c3.556,0,3.56,5.38,0,5.38S7.645,8.518,11.205,8.518Z" transform="translate(-2.884 -2.884)" fill="#fff" stroke="#fff" stroke-width="0.5"/>
</svg>
