<svg xmlns="http://www.w3.org/2000/svg" width="32.189" height="10.443" viewBox="0 0 32.189 10.443">
  <g id="Group_3428" data-name="Group 3428" transform="translate(0 0)">
    <g id="Group_3427" data-name="Group 3427" transform="translate(0 0)">
      <path id="Path_2509" data-name="Path 2509" d="M55.829,62.276H53.2l1.642-10.089H57.47Z" transform="translate(-41.874 -52.006)" fill="#0066b3"/>
      <path id="Path_2510" data-name="Path 2510" d="M20.344,52.186l-2.5,6.939-.3-1.494h0l-.884-4.537a1.125,1.125,0,0,0-1.246-.909h-4.14l-.049.171a9.809,9.809,0,0,1,2.747,1.153l2.282,8.764h2.737l4.179-10.089H20.344Z" transform="translate(-11.226 -52.006)" fill="#0066b3"/>
      <path id="Path_2511" data-name="Path 2511" d="M102.813,62.275h2.412l-2.1-10.089h-2.112a1.207,1.207,0,0,0-1.212.752l-3.917,9.337h2.738l.548-1.5h3.339Zm-2.89-3.569,1.38-3.775.776,3.775Z" transform="translate(-73.036 -52.006)" fill="#0066b3"/>
      <path id="Path_2512" data-name="Path 2512" d="M76.41,54.125l.375-2.167a7.581,7.581,0,0,0-2.362-.44c-1.3,0-4.4.57-4.4,3.34,0,2.607,3.633,2.639,3.633,4.008s-3.258,1.124-4.334.261l-.391,2.265a7.358,7.358,0,0,0,2.965.57c1.792,0,4.5-.928,4.5-3.454,0-2.623-3.666-2.867-3.666-4.008S75.286,53.505,76.41,54.125Z" transform="translate(-53.359 -51.518)" fill="#0066b3"/>
    </g>
    <path id="Path_2513" data-name="Path 2513" d="M17.544,57.631l-.884-4.537a1.125,1.125,0,0,0-1.246-.909h-4.14l-.049.171a10.179,10.179,0,0,1,3.9,1.957A7.868,7.868,0,0,1,17.544,57.631Z" transform="translate(-11.226 -52.006)" fill="#faa634"/>
  </g>
</svg>
