<svg xmlns="http://www.w3.org/2000/svg" width="18" height="18.3" viewBox="0 0 18 18.3">
  <g id="Group_6470" data-name="Group 6470" transform="translate(0 0.15)">
    <rect id="Rectangle_1993" data-name="Rectangle 1993" width="18" height="18" fill="#cdd3d2" opacity="0"/>
    <path id="Path_2554" data-name="Path 2554" d="M6.82,0A6.449,6.449,0,0,0,4.192.554,6.981,6.981,0,0,0,2.021,2.03,7.142,7.142,0,0,0,.554,4.219,6.511,6.511,0,0,0,0,6.855,6.666,6.666,0,0,0,.211,8.473,12.934,12.934,0,0,0,.7,10.037a10.8,10.8,0,0,0,.809,1.6q.527.879.94,1.485T3.568,14.6q.7.87,1.09,1.327t1.09,1.266q.211.246.316.352a.775.775,0,0,0,.123.132,1.762,1.762,0,0,0,.316.2A.927.927,0,0,0,6.943,18H7a1.134,1.134,0,0,0,.879-.457Q13.5,11.074,13.5,6.855a6.883,6.883,0,0,0-1.793-4.869A6.389,6.389,0,0,0,6.82,0Zm.211,16.787a.2.2,0,0,1-.07.07l-.07-.07-.3-.334q-.668-.773-1.037-1.2T4.518,13.992q-.668-.826-1.055-1.4t-.9-1.389a10.252,10.252,0,0,1-.782-1.477,10.4,10.4,0,0,1-.466-1.424,5.921,5.921,0,0,1-.193-1.45A5.578,5.578,0,0,1,1.9,4,5.775,5.775,0,0,1,3.981,1.9,5.484,5.484,0,0,1,6.82,1.125,6.054,6.054,0,0,1,9.3,1.608a4.545,4.545,0,0,1,1.749,1.31,5.9,5.9,0,0,1,.993,1.828,6.626,6.626,0,0,1,.334,2.109Q12.375,10.652,7.031,16.787ZM6.768,3.393A3.291,3.291,0,0,0,5.7,3.568a3.346,3.346,0,0,0-.932.483,3.586,3.586,0,0,0-.729.729,3.2,3.2,0,0,0-.483.932,3.366,3.366,0,0,0-.167,1.055,3.24,3.24,0,0,0,.993,2.391,3.274,3.274,0,0,0,2.391.984,3.244,3.244,0,0,0,2.382-.984,3.255,3.255,0,0,0,.984-2.391,3.331,3.331,0,0,0-.264-1.31,3.26,3.26,0,0,0-.721-1.072,3.562,3.562,0,0,0-1.081-.721A3.238,3.238,0,0,0,6.768,3.393Zm0,5.625A2.281,2.281,0,0,1,4.5,6.75,2.251,2.251,0,0,1,6.75,4.5,2.251,2.251,0,0,1,9,6.75,2.24,2.24,0,0,1,6.768,9.018Z" transform="translate(2.21 0)" fill="#798080" stroke="#798080" stroke-width="0.3"/>
  </g>
</svg>
