<svg xmlns="http://www.w3.org/2000/svg" width="18.1" height="18.1" viewBox="0 0 18.1 18.1">
  <g id="Group_6387" data-name="Group 6387" transform="translate(-435.95 -748.949)">
    <rect id="Rectangle_2467" data-name="Rectangle 2467" width="18" height="18" transform="translate(436 749)" fill="#068d6e" opacity="0"/>
    <g id="Group_6386" data-name="Group 6386" transform="translate(1 -25.004)">
      <path id="Path_3860" data-name="Path 3860" d="M147.83,151.06a3.23,3.23,0,1,1,3.23-3.23A3.234,3.234,0,0,1,147.83,151.06Zm0-5.59a2.36,2.36,0,1,0,2.36,2.36A2.363,2.363,0,0,0,147.83,145.47Z" transform="translate(296.17 635.171)" fill="#798080" stroke="#798080" stroke-width="0.2"/>
      <g id="process" transform="translate(435 704.998)">
        <path id="Path_3859" data-name="Path 3859" d="M16.6,76.187a1.128,1.128,0,0,1-.8-.721c-.06-.16-.126-.32-.2-.476a1.128,1.128,0,0,1,.052-1.074,1.881,1.881,0,0,0-2.571-2.571,1.128,1.128,0,0,1-1.074.052c-.156-.071-.316-.137-.476-.2a1.128,1.128,0,0,1-.722-.8,1.881,1.881,0,0,0-3.636,0,1.128,1.128,0,0,1-.722.8c-.16.06-.32.126-.476.2a1.127,1.127,0,0,1-1.074-.052A1.881,1.881,0,0,0,2.636,74.3l.073.073a7.167,7.167,0,0,0-.726,1.75h-.1a1.881,1.881,0,0,0-.482,3.7,1.128,1.128,0,0,1,.8.722c.06.16.126.32.2.476a1.128,1.128,0,0,1-.052,1.074,1.881,1.881,0,0,0,2.571,2.571,1.128,1.128,0,0,1,1.074-.052c.156.071.316.138.476.2a1.128,1.128,0,0,1,.722.8,1.881,1.881,0,0,0,3.636,0,1.128,1.128,0,0,1,.722-.8c.16-.06.321-.126.476-.2a1.128,1.128,0,0,1,1.074.052,1.881,1.881,0,0,0,2.571-2.571,1.128,1.128,0,0,1-.052-1.074c.071-.156.138-.316.2-.476a1.128,1.128,0,0,1,.8-.721,1.881,1.881,0,0,0,0-3.636Zm-.313,2.458a2.332,2.332,0,0,0-1.624,1.473c-.05.133-.1.266-.164.4a2.331,2.331,0,0,0,.106,2.192.662.662,0,0,1-.905.905,2.331,2.331,0,0,0-2.192-.106c-.129.059-.262.114-.4.164A2.332,2.332,0,0,0,9.64,85.292a.662.662,0,0,1-1.28,0,2.332,2.332,0,0,0-1.473-1.624c-.133-.05-.266-.1-.4-.164a2.4,2.4,0,0,0-1-.224,2.364,2.364,0,0,0-1.192.33.662.662,0,0,1-.905-.905A2.331,2.331,0,0,0,3.5,80.514c-.059-.129-.114-.263-.164-.4a2.332,2.332,0,0,0-1.624-1.473.662.662,0,0,1,.168-1.3h.588a.61.61,0,0,0,.6-.494,5.978,5.978,0,0,1,.921-2.222.61.61,0,0,0-.074-.772L3.5,73.439A.662.662,0,0,1,4.3,72.4a2.331,2.331,0,0,0,2.192.106c.129-.059.263-.114.4-.164A2.332,2.332,0,0,0,8.36,70.718a.662.662,0,0,1,1.28,0,2.332,2.332,0,0,0,1.473,1.624c.133.05.266.1.4.164A2.331,2.331,0,0,0,13.7,72.4a.662.662,0,0,1,.905.905A2.331,2.331,0,0,0,14.5,75.5c.059.129.114.263.164.4a2.332,2.332,0,0,0,1.624,1.473.662.662,0,0,1,0,1.28Z" fill="#798080" stroke="#798080" stroke-width="0.1"/>
      </g>
    </g>
  </g>
</svg>
