<svg xmlns="http://www.w3.org/2000/svg" width="18" height="18.2" viewBox="0 0 18 18.2">
  <g id="Group_6001" data-name="Group 6001" transform="translate(-1752 -43.9)">
    <rect id="Rectangle_2364" data-name="Rectangle 2364" width="18" height="18" transform="translate(1752 44)" fill="#9fd5c9" opacity="0"/>
    <g id="user_1_" data-name="user (1)" transform="translate(1753.636 44)">
      <g id="Group_5989" data-name="Group 5989" transform="translate(0)">
        <g id="Group_5988" data-name="Group 5988" transform="translate(0)">
          <path id="Path_3130" data-name="Path 3130" d="M58.75,220.526a5.444,5.444,0,0,1-.831.845,5.963,5.963,0,0,1,3,5.173c0,1.195-2.618,2.131-5.959,2.131S49,227.739,49,226.544a5.963,5.963,0,0,1,3-5.173,5.445,5.445,0,0,1-.831-.845,7.114,7.114,0,0,0-3.326,6.018c0,.767.42,1.835,2.42,2.572a15.814,15.814,0,0,0,9.386,0c2-.736,2.42-1.8,2.42-2.572A7.114,7.114,0,0,0,58.75,220.526Z" transform="translate(-47.85 -211.828)" fill="#068d6e" stroke="#068d6e" stroke-width="0.2"/>
          <path id="Path_3131" data-name="Path 3131" d="M131.553,9.458c2.242,0,3.968-2.167,3.968-4.729S133.793,0,131.553,0s-3.968,2.167-3.968,4.729S129.312,9.458,131.553,9.458Zm0-8.3c1.552,0,2.814,1.6,2.814,3.576S133.1,8.3,131.553,8.3s-2.814-1.6-2.814-3.576S130,1.153,131.553,1.153Z" transform="translate(-124.44)" fill="#068d6e" stroke="#068d6e" stroke-width="0.2"/>
        </g>
      </g>
    </g>
  </g>
</svg>
