<svg xmlns="http://www.w3.org/2000/svg" width="24.001" height="24" viewBox="0 0 24.001 24">
  <g id="tag" transform="translate(0 -0.013)">
    <g id="Group_5968" data-name="Group 5968" transform="translate(0 0.013)">
      <path id="Path_3126" data-name="Path 3126" d="M22.817,1.2a4.146,4.146,0,0,0-2.8-1.179,5.422,5.422,0,0,0-3.04.836.894.894,0,1,0,.93,1.527,2.972,2.972,0,0,1,3.642.085,2.444,2.444,0,0,1,.642,2.03,4.087,4.087,0,0,1-1.219,2.443,4.1,4.1,0,0,1-2.443,1.219,2.476,2.476,0,0,1-2.03-.642,1.69,1.69,0,0,0-1.2-.5,1.713,1.713,0,0,0-1.209.5,1.709,1.709,0,0,0,1.209,2.916,1.713,1.713,0,0,0,1.209-.5,1.609,1.609,0,0,0,.189-.224,4.479,4.479,0,0,0,1.517.259c.164,0,.333-.01.5-.025.015,0,.03,0,.045,0l.154,2.234A1.778,1.778,0,0,1,18.4,13.54l-8.344,8.334a1.207,1.207,0,0,1-1.7,0L2.139,15.659a1.2,1.2,0,0,1,0-1.7l8.339-8.339a1.76,1.76,0,0,1,1.363-.512L19.25,5.6a.9.9,0,1,0,.119-1.791l-7.408-.493A3.537,3.537,0,0,0,9.214,4.35L.876,12.689a3,3,0,0,0,0,4.239l6.209,6.209a3,3,0,0,0,4.239,0L19.662,14.8A3.558,3.558,0,0,0,20.7,12.042l-.179-2.617A6.321,6.321,0,0,0,22.245,8.2a5.874,5.874,0,0,0,1.731-3.527A4.233,4.233,0,0,0,22.817,1.2Z" transform="translate(0 -0.013)" fill="#068d6e"/>
    </g>
  </g>
</svg>
