<svg xmlns="http://www.w3.org/2000/svg" width="17.951" height="24" viewBox="0 0 17.951 24">
  <g id="fruit" transform="translate(0 0.001)">
    <path id="Path_3124" data-name="Path 3124" d="M17.313,10.891a5.161,5.161,0,0,0-4.657-3.376,8.7,8.7,0,0,0-1.954.171c-.254.048-.5.118-.739.186l-.176.05A5.165,5.165,0,0,1,12.033,4.13l.465-.315-.789-1.164-.464.315A6.581,6.581,0,0,0,9.756,4.354,5.115,5.115,0,0,0,8.443,1.377C6.824-.243,4.068.008,3.952.02L3.378.076,3.321.651c-.012.116-.262,2.873,1.357,4.492A5.74,5.74,0,0,0,8.635,6.521a6.579,6.579,0,0,0-.263,1.456c-.123-.031-.251-.068-.383-.1C7.751,7.8,7.5,7.733,7.25,7.686A8.694,8.694,0,0,0,5.3,7.515,5.161,5.161,0,0,0,.639,10.891a9.982,9.982,0,0,0,1.9,10.071,11.347,11.347,0,0,0,2.422,2.2,4.022,4.022,0,0,0,2.1.84h.006a4.487,4.487,0,0,0,1.911-.454A4.487,4.487,0,0,0,10.887,24h.006a4.022,4.022,0,0,0,2.1-.84,11.352,11.352,0,0,0,2.422-2.2,9.981,9.981,0,0,0,1.9-10.071ZM5.672,4.149a4.19,4.19,0,0,1-.961-2.738,4.186,4.186,0,0,1,2.737.961,4.19,4.19,0,0,1,.961,2.738,4.187,4.187,0,0,1-2.737-.961Zm8.66,15.911a9.939,9.939,0,0,1-2.12,1.927,3.026,3.026,0,0,1-1.319.606h0a3.066,3.066,0,0,1-1.519-.431l-.39-.273-.4.273a3.034,3.034,0,0,1-1.519.431h0a3.027,3.027,0,0,1-1.32-.606,9.939,9.939,0,0,1-2.12-1.927,8.582,8.582,0,0,1-1.676-8.644,3.744,3.744,0,0,1,3.405-2.5,7.359,7.359,0,0,1,1.643.148c.19.036.395.094.612.156a5.92,5.92,0,0,0,1.08.235h0c.068,0,.158,0,.293,0,0,0,.261,0,.293-.005v0a5.914,5.914,0,0,0,1.08-.235c.217-.062.422-.12.612-.156A7.379,7.379,0,0,1,12.6,8.92a3.744,3.744,0,0,1,3.405,2.5,8.582,8.582,0,0,1-1.676,8.644Zm0,0" transform="translate(0 0)" fill="#068d6e"/>
    <path id="Path_3125" data-name="Path 3125" d="M70.062,241.874l-1.017-.972a4.785,4.785,0,0,0-.988,4.253l1.371-.311a3.384,3.384,0,0,1,.637-2.975Zm0,0" transform="translate(-64.74 -229.611)" fill="#068d6e"/>
  </g>
</svg>
