<svg xmlns="http://www.w3.org/2000/svg" width="19.284" height="24.501" viewBox="0 0 19.284 24.501">
  <path id="plant" d="M74.469.764a.7.7,0,0,0-.6-.544A23.4,23.4,0,0,0,65.9.473a15.513,15.513,0,0,0-7.739,4.181A8.407,8.407,0,0,0,59.17,17.4v5.9a.7.7,0,1,0,1.406,0V18.222a8.42,8.42,0,0,0,9.468-1.687c2.477-2.476,1.964-5.889,1.795-7.8-.258-2.923-.48-5.448,2.32-7.22a.7.7,0,0,0,.31-.748ZM59.157,5.648a14.743,14.743,0,0,1,9.6-4.18,16.55,16.55,0,0,0-4.712,3.5,17.75,17.75,0,0,0-4.807,10.654,7.007,7.007,0,0,1-.086-9.976Zm11.28,3.207c.221,2.5.429,4.868-1.389,6.686a7.006,7.006,0,0,1-8.461,1.1A16.363,16.363,0,0,1,65.07,5.937a15.2,15.2,0,0,1,4.3-3.2A11.707,11.707,0,0,1,71.622,1.9,6.005,6.005,0,0,0,70.49,4.345a15,15,0,0,0-.053,4.51Z" transform="translate(-55.459 0.252)" fill="#068d6e" stroke="#068d6e" stroke-width="0.5"/>
</svg>
